<svg xmlns="http://www.w3.org/2000/svg" viewBox="0 0 161.56 187.33">
  <g id="Layer_2" data-name="Layer 2">
    <g id="Layer_1-2" data-name="Layer 1">
      <g id="Layer_1-3" data-name="Layer 1">
        <polygon points="73.94 47.61 0 47.61 0 187.33 19.66 187.33 19.66 67.27 54.6 67.27 73.94 47.61"/>
        <polyline points="161.53 7.68 161.53 0 19.66 0 0 0 0 19.66 0 32.92 19.66 32.92 19.66 19.66 124.49 19.66 47.74 101.42 75.08 101.42 159.35 10.15"/>
        <polygon points="39.43 187.33 161.5 187.33 161.56 167.66 68.05 167.44 68.05 167.44 39.43 167.44 39.43 187.33"/>
        <polygon points="141.67 154.13 141.67 187.32 161.56 187.33 161.56 161.91 161.56 161.91 161.56 154.13 141.67 154.13"/>
        <path d="M50.24,119.69H39.43V139.6h82.72c21.71,0,39.23-18.86,39.38-42,.1-16.64-8.9-29.81-23.87-37.35l-12.12,15c7.74,3.46,17.35,13.43,17.35,22.39,0,12.21-9.3,22.14-20.73,22.14H50.24Z"/>
      </g>
    </g>
  </g>
</svg>
